# xmcd
#
# Track frame offsets: 
#        150
#        18842
#        34795
#        47067
#        61062
#        83185
#        100460
#        114795
#        128910
#        146300
#        165462
#        180472
#
# Disc length: 2588 seconds
#
# Revision: 2
# Processed by: cddbd v1.4PL0 Copyright (c) Steve Scherf et al.
# Submitted via: ExactAudioCopy v0.90b3
#
DISCID=8d0a1a0c
DTITLE=Steve Azar - Heartbreak Town
DYEAR=1900
DGENRE=Country
TTITLE0=I Never Stopped Lovin' You
TTITLE1=Nights Like This
TTITLE2=What Are We Waitin' For
TTITLE3=Someday
TTITLE4=Thunderbird
TTITLE5=As Long As Harley Gets To Play
TTITLE6=Dreams Of A Dancer
TTITLE7=Heartbreak Town
TTITLE8=I Go Crazy
TTITLE9=Caught Between The Rock and The Roll
TTITLE10=Love Had No Right
TTITLE11=You Don't Even Have To Try
EXTD=
EXTT0=
EXTT1=
EXTT2=
EXTT3=
EXTT4=
EXTT5=
EXTT6=
EXTT7=
EXTT8=
EXTT9=
EXTT10=
EXTT11=
PLAYORDER=
